<svg width="62" height="63" viewBox="0 0 62 63" fill="none" xmlns="http://www.w3.org/2000/svg">
<path d="M35.3348 30.5152C35.7735 25.9375 32.7259 22.9564 29.7085 22.1238C27.605 21.5434 25.6348 21.7759 24.0108 22.7964C22.2478 23.9043 20.956 25.8837 20.5553 28.0913C20.5377 28.1882 20.5012 28.2807 20.4479 28.3635C20.3946 28.4463 20.3254 28.5178 20.2445 28.5739C20.1635 28.63 20.0723 28.6696 19.976 28.6904C19.8797 28.7113 19.7803 28.7129 19.6834 28.6953C19.5865 28.6777 19.494 28.6412 19.4112 28.5879C19.3283 28.5345 19.2569 28.4654 19.2008 28.3845C19.1447 28.3035 19.1051 28.2123 19.0843 28.116C19.0634 28.0197 19.0618 27.9203 19.0794 27.8234C19.5539 25.2084 21.099 22.8544 23.2125 21.5263C25.2029 20.2757 27.5871 19.9822 30.1073 20.6778C34.5109 21.893 37.2745 25.9972 36.8278 30.6583C36.2915 36.2515 32.178 42.1253 26.8245 44.9423C26.7374 44.9881 26.642 45.0164 26.5439 45.0254C26.4459 45.0344 26.347 45.024 26.2529 44.9948C26.1589 44.9656 26.0715 44.9182 25.9958 44.8552C25.92 44.7922 25.8575 44.7149 25.8116 44.6278C25.7658 44.5406 25.7375 44.4453 25.7285 44.3472C25.7195 44.2491 25.7299 44.1502 25.7591 44.0561C25.7883 43.9621 25.8357 43.8747 25.8987 43.799C25.9617 43.7232 26.039 43.6606 26.1261 43.6148C30.979 41.0612 34.8519 35.552 35.3348 30.515V30.5152ZM33.1356 27.8379C32.6944 25.8179 31.2783 24.3707 29.3476 23.9665C27.1456 23.5055 24.8549 24.492 23.3679 26.5407C22.2389 28.096 21.3844 30.1527 20.4798 32.3302C18.9891 35.9179 17.4478 39.6278 14.5928 41.2692C14.5062 41.3176 14.4302 41.3828 14.369 41.4609C14.3079 41.539 14.2628 41.6284 14.2364 41.724C14.21 41.8196 14.2029 41.9195 14.2154 42.0179C14.2279 42.1163 14.2597 42.2112 14.3092 42.2972C14.3586 42.3832 14.4246 42.4585 14.5033 42.5188C14.5821 42.5791 14.672 42.6232 14.7679 42.6486C14.8638 42.6739 14.9637 42.6799 15.062 42.6664C15.1602 42.6528 15.2548 42.6199 15.3403 42.5695C18.6373 40.674 20.352 36.5469 21.8649 32.9055C22.7348 30.8118 23.5564 28.8343 24.5816 27.4217C25.7168 25.8578 27.4253 25.0965 29.0401 25.4345C30.3954 25.7183 31.354 26.7109 31.6701 28.158C32.9645 34.0827 28.6598 39.3198 18.1225 44.6394C18.0332 44.6829 17.9534 44.7438 17.8878 44.8185C17.8222 44.8931 17.7721 44.98 17.7404 45.0742C17.7087 45.1684 17.696 45.2679 17.7031 45.367C17.7102 45.4662 17.7369 45.5629 17.7817 45.6516C17.8265 45.7403 17.8884 45.8192 17.964 45.8838C18.0395 45.9483 18.1271 45.9972 18.2218 46.0276C18.3164 46.058 18.4161 46.0693 18.5151 46.0608C18.6141 46.0524 18.7104 46.0243 18.7985 45.9783C25.8741 42.4063 35.0586 36.6394 33.1354 27.8378L33.1356 27.8379ZM35.0994 45.1269C34.3232 45.8117 33.3586 46.4713 32.2321 47.0875C32.1457 47.1348 32.0695 47.1986 32.0077 47.2754C31.946 47.3521 31.9 47.4403 31.8723 47.5348C31.8446 47.6293 31.8358 47.7284 31.8465 47.8263C31.8571 47.9242 31.8869 48.0191 31.9341 48.1055C31.9814 48.1919 32.0452 48.2682 32.122 48.3299C32.1987 48.3917 32.2869 48.4377 32.3814 48.4654C32.4759 48.493 32.575 48.5018 32.6729 48.4912C32.7708 48.4806 32.8657 48.4508 32.9521 48.4035C34.176 47.734 35.2323 47.01 36.0918 46.2518C36.2409 46.1202 36.3317 45.9347 36.3441 45.7362C36.3565 45.5376 36.2895 45.3423 36.1579 45.1932C36.0263 45.044 35.8408 44.9532 35.6423 44.9408C35.4437 44.9284 35.2484 44.9954 35.0993 45.127L35.0994 45.1269ZM23.5235 45.0794C22.9684 45.3995 22.0293 45.8545 20.947 46.3279C20.7668 46.4089 20.6258 46.5578 20.5548 46.7421C20.4837 46.9265 20.4882 47.1314 20.5674 47.3125C20.6465 47.4935 20.794 47.636 20.9776 47.7089C21.1612 47.7819 21.3662 47.7795 21.548 47.7022C22.0829 47.4682 23.4193 46.8709 24.2728 46.3788C24.4428 46.2783 24.5664 46.1148 24.6166 45.9237C24.6669 45.7327 24.6397 45.5295 24.541 45.3584C24.4423 45.1873 24.2801 45.062 24.0896 45.0097C23.8991 44.9575 23.6957 44.9825 23.5235 45.0794ZM26.6185 36.3278C26.7482 36.4257 26.9063 36.4786 27.0689 36.4785C27.2965 36.4785 27.5214 36.3753 27.6689 36.1793C28.9293 34.5039 29.7344 32.473 30.062 30.1428C30.0897 29.9458 30.038 29.746 29.9183 29.5871C29.7986 29.4283 29.6207 29.3235 29.4238 29.2958C29.3262 29.282 29.2269 29.2876 29.1316 29.3122C29.0362 29.3369 28.9466 29.3801 28.868 29.4393C28.7893 29.4986 28.7231 29.5728 28.6731 29.6577C28.6232 29.7426 28.5904 29.8365 28.5768 29.934C28.2809 32.0389 27.5919 33.7869 26.4703 35.2777C26.3507 35.4366 26.2992 35.6365 26.327 35.8335C26.3549 36.0304 26.4598 36.2082 26.6188 36.3278H26.6185ZM24.8233 34.5512C25.9438 31.8602 27.1426 29.6054 28.3869 27.8492C28.5015 27.6868 28.5469 27.4857 28.5134 27.2899C28.4798 27.0941 28.3699 26.9196 28.2078 26.8047C28.0457 26.6898 27.8446 26.644 27.6487 26.6772C27.4529 26.7104 27.2782 26.82 27.163 26.9819C25.8519 28.8325 24.5963 31.1913 23.4311 33.9925C23.4262 34.0044 23.4216 34.0163 23.4174 34.0284C21.9416 38.1619 19.542 41.2282 16.2849 43.1422C16.1989 43.1915 16.1236 43.2574 16.0633 43.3361C16.0029 43.4147 15.9588 43.5046 15.9334 43.6004C15.908 43.6962 15.9019 43.7961 15.9153 43.8943C15.9288 43.9925 15.9616 44.0871 16.0118 44.1726C16.062 44.258 16.1287 44.3327 16.2079 44.3922C16.2872 44.4517 16.3775 44.495 16.4735 44.5194C16.5696 44.5438 16.6696 44.549 16.7676 44.5345C16.8657 44.5201 16.9599 44.4864 17.0449 44.4353C20.6085 42.3413 23.2255 39.0155 24.8234 34.551L24.8233 34.5512ZM12.7764 38.6912C12.6966 38.7498 12.6293 38.8237 12.5783 38.9085C12.5272 38.9934 12.4935 39.0875 12.479 39.1854C12.4645 39.2833 12.4695 39.3832 12.4938 39.4792C12.5181 39.5751 12.5611 39.6654 12.6204 39.7446C12.6798 39.8239 12.7542 39.8906 12.8394 39.941C12.9247 39.9913 13.019 40.0243 13.1171 40.038C13.2151 40.0517 13.3149 40.0459 13.4107 40.0208C13.5065 39.9958 13.5963 39.952 13.6751 39.892C17.9476 36.6947 17.7764 32.654 17.6253 29.089C17.451 24.9798 17.3006 21.4309 23.5491 19.2449C23.6421 19.2124 23.7277 19.1619 23.8012 19.0962C23.8746 19.0306 23.9344 18.9512 23.9772 18.8624C24.0199 18.7737 24.0448 18.6774 24.0503 18.5791C24.0558 18.4807 24.0419 18.3822 24.0094 18.2893C23.9769 18.1963 23.9263 18.1107 23.8607 18.0372C23.7951 17.9638 23.7156 17.904 23.6269 17.8612C23.5382 17.8185 23.4419 17.7937 23.3435 17.7881C23.2452 17.7826 23.1467 17.7965 23.0538 17.829C19.7994 18.9677 17.7513 20.6083 16.7924 22.8447C15.9433 24.8254 16.0365 27.0252 16.1268 29.1525C16.2753 32.6573 16.4155 35.9678 12.7764 38.6912ZM10.0698 29.4064L9.92513 30.8725C9.90933 31.0685 9.97111 31.2628 10.0972 31.4137C10.2232 31.5646 10.4035 31.66 10.5991 31.6793C10.7948 31.6986 10.9902 31.6403 11.1433 31.517C11.2965 31.3937 11.395 31.2152 11.4179 31.0199L11.5625 29.5538C11.582 29.3558 11.5221 29.1582 11.396 29.0044C11.2698 28.8507 11.0877 28.7533 10.8898 28.7338C10.7917 28.7239 10.6927 28.7335 10.5984 28.762C10.5041 28.7905 10.4163 28.8374 10.3401 28.8998C10.2639 28.9623 10.2008 29.0392 10.1544 29.1262C10.108 29.2131 10.0793 29.3083 10.0698 29.4064ZM11.4551 36.7229C11.5388 36.7749 11.632 36.8098 11.7292 36.8257C11.8264 36.8417 11.9258 36.8383 12.0217 36.8157C12.1176 36.7932 12.2081 36.752 12.2881 36.6944C12.368 36.6368 12.4358 36.5641 12.4876 36.4803C14.0886 33.8963 14.3953 30.9527 14.4355 29.428C14.4407 29.2292 14.3667 29.0364 14.2298 28.8921C14.093 28.7478 13.9044 28.6637 13.7055 28.6584C13.2921 28.6469 12.947 28.9743 12.936 29.3883C12.9069 30.4939 12.6804 33.321 11.2125 35.6903C11.1078 35.8594 11.0745 36.0632 11.12 36.2568C11.1654 36.4504 11.2861 36.6181 11.4551 36.7229ZM26.0288 18.6579C26.0578 18.6579 26.0873 18.6562 26.1168 18.6528C26.6353 18.5921 27.1573 18.566 27.6793 18.5747H27.6923C27.8899 18.5744 28.0794 18.4961 28.2196 18.3568C28.3599 18.2175 28.4394 18.0285 28.4411 17.8309C28.4427 17.6333 28.3663 17.443 28.2284 17.3014C28.0905 17.1598 27.9024 17.0784 27.7048 17.0748C27.1201 17.0645 26.5278 17.0945 25.9428 17.1629C25.753 17.1855 25.5791 17.2795 25.4564 17.426C25.3337 17.5724 25.2715 17.7601 25.2824 17.9509C25.2934 18.1416 25.3767 18.321 25.5154 18.4523C25.6541 18.5837 25.8377 18.6573 26.0288 18.6579ZM30.347 18.9235C34.7516 19.9805 37.9549 23.2823 38.9159 27.7558C38.9577 27.9502 39.075 28.1201 39.2421 28.228C39.4091 28.336 39.6122 28.3732 39.8066 28.3315C40.0011 28.2898 40.171 28.1724 40.279 28.0054C40.3869 27.8383 40.4241 27.6353 40.3824 27.4408C39.2973 22.3893 35.6766 18.66 30.6971 17.465C30.5037 17.4186 30.2998 17.4509 30.1302 17.5549C29.9606 17.6589 29.8392 17.8259 29.7928 18.0193C29.7464 18.2128 29.7787 18.4167 29.8827 18.5863C29.9866 18.7559 30.1537 18.8772 30.3471 18.9237L30.347 18.9235ZM40.0466 29.3328C39.8491 29.3328 39.6596 29.4108 39.5192 29.5497C39.3788 29.6886 39.2989 29.8773 39.2968 30.0748C39.2206 37.1983 34.2983 43.5167 25.4365 47.866C25.2842 47.9406 25.1617 48.0646 25.089 48.2178C25.0163 48.371 24.9976 48.5443 25.036 48.7095C25.0744 48.8746 25.1677 49.0219 25.3005 49.1272C25.4334 49.2326 25.5981 49.2898 25.7676 49.2895C25.8785 49.2895 25.9911 49.2648 26.0975 49.2127C35.4939 44.6009 40.7143 37.81 40.7969 30.0909C40.7979 29.9924 40.7796 29.8947 40.7429 29.8033C40.7061 29.7119 40.6518 29.6286 40.5829 29.5582C40.514 29.4878 40.4319 29.4317 40.3413 29.393C40.2507 29.3544 40.1534 29.334 40.0549 29.3329H40.0468L40.0466 29.3328ZM53.8758 37.772C53.0583 42.3278 50.6281 46.3965 46.4586 50.1947C42.6928 53.6253 38.007 56.4224 33.4755 59.1275C31.405 60.3637 29.4491 61.5312 27.5806 62.7527C27.4586 62.8325 27.316 62.875 27.1703 62.875C27.0245 62.875 26.8819 62.8325 26.7599 62.7527C24.8914 61.5312 22.9355 60.3637 20.865 59.1275C15.9028 56.1653 10.7716 53.102 6.85138 49.2162C2.34275 44.7468 0.150879 39.827 0.150879 34.1755V11.6779C0.150879 10.1625 1.07888 8.87091 2.51488 8.38728L26.9305 0.164281C27.0858 0.111906 27.254 0.111906 27.4093 0.164281L51.8254 8.38728C53.2614 8.87078 54.1893 10.1624 54.1893 11.6778V17.6439C58.5978 18.8464 61.8491 22.8835 61.8491 27.668C61.8491 32.5653 58.4426 36.6793 53.8754 37.772H53.8758ZM52.2991 38.0219C52.0216 38.0443 51.742 38.0588 51.4588 38.0588C50.8878 38.0588 50.3279 38.0105 49.7816 37.9215C48.9848 41.1742 47.1253 44.1484 44.114 46.9915C41.3084 49.6405 37.9464 51.7778 34.7433 53.7397C33.6568 54.4053 32.5455 55.0682 31.4709 55.7093C30.1821 56.478 28.8495 57.273 27.5556 58.0752C27.4376 58.1484 27.3016 58.1874 27.1628 58.1878C27.0239 58.1882 26.8877 58.15 26.7693 58.0775C25.755 57.4574 24.7021 56.8327 23.5875 56.171C17.073 52.3048 9.68913 47.9227 6.29613 42.2095C4.82688 39.7355 4.11263 37.1078 4.11263 34.1758V12.5685C4.11263 12.4115 4.16191 12.2585 4.25353 12.131C4.34514 12.0034 4.47445 11.9079 4.62325 11.8578L26.9305 4.34478C27.0858 4.29241 27.254 4.29241 27.4093 4.34478L49.7169 11.8578C49.8657 11.9079 49.995 12.0034 50.0866 12.131C50.1782 12.2585 50.2275 12.4115 50.2275 12.5685V17.3527C50.6315 17.3048 51.0418 17.2773 51.4585 17.2773C51.8753 17.2773 52.2854 17.3048 52.6894 17.3527V11.6779C52.6894 10.8172 52.1624 10.0835 51.3468 9.80891L27.1699 1.66641L2.99325 9.80891C2.17763 10.0835 1.6505 10.8172 1.6505 11.6779V34.1757C1.6505 45.9104 11.8093 51.9749 21.6334 57.8397C23.4829 58.9438 25.3908 60.0827 27.1699 61.2308C28.949 60.0827 30.8569 58.9438 32.7064 57.8397C41.3845 52.6592 50.3475 47.3077 52.2988 38.0219H52.2991ZM48.7279 17.644V13.1074L27.1699 5.84691L5.61238 13.1073V34.1755C5.61238 36.8303 6.25775 39.2077 7.58563 41.4433C10.7834 46.8277 17.9924 51.1062 24.3528 54.8809C25.3289 55.4602 26.2575 56.0113 27.1575 56.5577C28.3373 55.8319 29.5375 55.1158 30.702 54.421C31.7729 53.7822 32.8804 53.1215 33.9595 52.4605C40.6106 48.3865 46.7075 44.174 48.3228 37.5742C46.5774 37.0204 45.0309 36.0174 43.8184 34.7014C42.8761 38.4774 40.8628 41.9234 38.062 44.5139C37.9236 44.6422 37.7418 44.7135 37.553 44.7133C37.4021 44.7133 37.2548 44.6679 37.1302 44.5829C37.0055 44.4979 36.9094 44.3773 36.8544 44.2368C36.7994 44.0964 36.788 43.9426 36.8217 43.7956C36.8555 43.6485 36.9328 43.5151 37.0435 43.4127C39.9266 40.746 41.9083 37.094 42.6235 33.1289C41.6048 31.4898 41.0658 29.5979 41.0676 27.668C41.0671 26.3483 41.3195 25.0408 41.811 23.816C41.4829 22.9794 41.0826 22.1794 40.6193 21.4374C36.8476 15.3997 28.104 12.9687 21.1283 16.0174C16.9428 17.847 13.6819 21.6845 12.1819 26.546C12.1231 26.736 11.9914 26.8949 11.8155 26.9878C11.6397 27.0808 11.4342 27.1001 11.2441 27.0415C11.15 27.0125 11.0625 26.9652 10.9867 26.9024C10.9108 26.8395 10.8481 26.7624 10.8021 26.6753C10.7561 26.5882 10.7277 26.4929 10.7185 26.3949C10.7093 26.2968 10.7195 26.1979 10.7485 26.1038C12.3774 20.8249 15.9416 16.6475 20.5274 14.643C24.3115 12.989 28.648 12.7522 32.738 13.976C36.6374 15.1429 39.9738 17.5729 41.8915 20.6428C42.1845 21.1131 42.4524 21.5985 42.6941 22.0972C44.0665 19.9458 46.207 18.3315 48.7276 17.644H48.7279ZM60.3496 27.6682C60.3496 22.7658 56.3613 18.7774 51.4589 18.7774C46.5565 18.7774 42.568 22.7658 42.568 27.6682C42.568 32.5705 46.5564 36.5589 51.4589 36.5589C56.3614 36.5589 60.3496 32.5705 60.3496 27.6682ZM57.0553 23.3235C57.8335 24.1019 57.8335 25.3684 57.0553 26.1468L51.2716 31.9303C50.8365 32.3654 50.2815 32.596 49.6841 32.596C49.581 32.596 49.4767 32.5892 49.3714 32.5753C48.6561 32.4812 48.0636 32.0852 47.7029 31.4603L45.5458 27.7243C45.2799 27.2635 45.2096 26.7257 45.3478 26.2097C45.486 25.6937 45.816 25.2629 46.2766 24.997C46.7375 24.7312 47.2752 24.6609 47.7911 24.799C48.3071 24.9373 48.7378 25.2672 49.0038 25.7278L50.0373 27.5178L54.2319 23.3233C54.6079 22.9472 55.1093 22.74 55.6435 22.74C56.1777 22.74 56.6791 22.9473 57.0553 23.3235ZM55.9945 24.384C55.9018 24.2913 55.7771 24.2402 55.6435 24.2402C55.5099 24.2402 55.3854 24.2913 55.2925 24.384L50.4066 29.2697C50.3253 29.351 50.2263 29.4125 50.1174 29.4495C50.0085 29.4864 49.8925 29.4978 49.7784 29.4828C49.6644 29.4678 49.5553 29.4268 49.4597 29.3629C49.3641 29.2989 49.2844 29.2139 49.2269 29.1143L47.7048 26.4778C47.6722 26.4214 47.6287 26.372 47.5769 26.3326C47.5251 26.2931 47.466 26.2643 47.403 26.2479C47.3601 26.2363 47.3159 26.2304 47.2715 26.2304C47.1855 26.2303 47.101 26.2529 47.0266 26.296C46.7936 26.4305 46.7104 26.7412 46.8449 26.9742L49.002 30.7103C49.1296 30.9313 49.3144 31.0548 49.5673 31.088C49.8201 31.1215 50.0306 31.0498 50.211 30.8694L55.9945 25.086C56.1846 24.8958 56.1846 24.5743 55.9945 24.3839V24.384Z" fill="black"/>
</svg>
