<svg width="64" height="64" viewBox="0 0 64 64" fill="none" xmlns="http://www.w3.org/2000/svg">
<path d="M23.2086 58.5219H3.30532V5.35266H5.55587V55.6384C5.55587 56.3417 6.11851 56.9043 6.82181 56.9043C7.5251 56.9043 8.08774 56.3417 8.08774 55.6384V5.35266H13.0811V12.8076C13.0811 13.3702 13.4328 13.7922 13.9251 14.0032C14.4174 14.2142 14.98 14.0735 15.3317 13.6516L17.7229 11.0494L20.1141 13.6516C20.3954 13.9329 20.7471 14.0735 21.0987 14.0735C21.2394 14.0735 21.38 14.0735 21.591 14.0032C22.0833 13.7922 22.435 13.2999 22.435 12.8076V5.35266H46.3471V26.3109C46.3471 27.0142 46.9097 27.5768 47.613 27.5768C48.3163 27.5768 48.879 27.0142 48.879 26.3109V4.08673C48.879 3.38343 48.3163 2.82079 47.613 2.82079H22.435V2.1175C22.435 1.4142 21.8724 0.851562 21.1691 0.851562H14.5581C13.8548 0.851562 13.2921 1.4142 13.2921 2.1175V2.82079H2.10972C1.75807 2.82079 1.40642 2.96145 1.19543 3.17244C0.843784 3.38343 0.703125 3.73508 0.703125 4.08673V59.7878C0.703125 60.4911 1.26576 61.0538 1.96906 61.0538H23.2086C23.9119 61.0538 24.4746 60.4911 24.4746 59.7878C24.4746 59.0845 23.9119 58.5219 23.2086 58.5219ZM15.7537 3.38343H19.8328V9.50211L18.7779 8.30651C18.5669 8.02519 18.2152 7.88453 17.7932 7.88453C17.4416 7.88453 17.0899 8.02519 16.8086 8.30651L15.7537 9.50211V3.38343Z" fill="black"/>
<path d="M28.2726 18.5746H35.3759C36.0792 18.5746 36.6419 18.012 36.6419 17.3087C36.6419 16.6054 36.0792 15.9724 35.3759 15.9724H28.2726C27.5694 15.9724 27.0067 16.5351 27.0067 17.2384C27.0067 17.9417 27.499 18.5746 28.2726 18.5746ZM28.2726 22.5131H30.4529C31.1562 22.5131 31.7188 21.9504 31.7188 21.2472C31.7188 20.5439 31.1562 19.9812 30.4529 19.9812H28.2726C27.5694 19.9812 27.0067 20.5439 27.0067 21.2472C27.0067 21.9504 27.499 22.5131 28.2726 22.5131ZM43.0419 21.2472C43.0419 20.5439 42.4792 19.9812 41.7759 19.9812H35.165C34.4617 19.9812 33.899 20.5439 33.899 21.2472C33.899 21.9504 34.4617 22.5131 35.165 22.5131H41.7056C42.4792 22.5131 43.0419 21.9504 43.0419 21.2472ZM27.1474 25.5373C27.1474 26.2406 27.71 26.8032 28.4133 26.8032H36.0792C36.7825 26.8032 37.3452 26.2406 37.3452 25.5373C37.3452 24.834 36.7825 24.2713 36.0792 24.2713H28.4133C27.71 24.201 27.1474 24.834 27.1474 25.5373ZM42.3386 25.5373C42.3386 24.834 41.7759 24.2713 41.0727 24.2713H40.299C39.5957 24.2713 39.0331 24.834 39.0331 25.5373C39.0331 26.2406 39.5957 26.8032 40.299 26.8032H41.0727C41.7759 26.8032 42.3386 26.2406 42.3386 25.5373ZM28.2726 34.3285H35.3759C36.0792 34.3285 36.6419 33.7658 36.6419 33.0625C36.6419 32.3592 36.0792 31.7966 35.3759 31.7966H28.2726C27.5694 31.7966 27.0067 32.3592 27.0067 33.0625C26.9364 33.7658 27.499 34.3285 28.2726 34.3285ZM30.3825 38.2669C31.0858 38.2669 31.6485 37.7043 31.6485 37.001C31.6485 36.2977 31.0858 35.7351 30.3825 35.7351H28.2023C27.499 35.7351 26.9364 36.2977 26.9364 37.001C26.9364 37.7043 27.499 38.2669 28.2023 38.2669H30.3825ZM35.165 38.2669H40.5803C41.2836 38.2669 41.8463 37.7043 41.8463 37.001C41.8463 36.2977 41.2836 35.7351 40.5803 35.7351H35.165C34.4617 35.7351 33.899 36.2977 33.899 37.001C33.899 37.7043 34.4617 38.2669 35.165 38.2669ZM24.3342 19.9812C24.1935 19.4186 23.6309 19.0669 23.1386 19.0669H20.1144L18.9891 15.8318C18.8485 15.2691 18.2858 14.9175 17.7935 14.9175C17.2309 14.9175 16.7386 15.2691 16.5979 15.8318L15.4726 19.0669H12.4485C11.8858 19.0669 11.3935 19.4186 11.2529 19.9812C11.1122 20.5439 11.2529 21.1065 11.7452 21.4581L14.2067 23.2164L13.2221 26.2406C13.0814 26.8032 13.2221 27.3658 13.7144 27.7175C13.9254 27.8581 14.2067 27.9988 14.488 27.9988C14.7694 27.9988 14.9803 27.9285 15.2617 27.7878L17.9342 25.8889L20.6067 27.7878C21.0287 28.1395 21.6617 28.1395 22.154 27.7878C22.5759 27.4362 22.7869 26.8735 22.6463 26.3109L21.6617 23.2867L24.1232 21.5285C24.3342 21.1065 24.4748 20.4735 24.3342 19.9812ZM18.6375 23.0757L18.7078 23.2867L18.4968 23.1461C18.0748 22.7944 17.4419 22.7944 17.0199 23.1461L16.8089 23.2867L16.8792 23.0757C17.0199 22.5834 16.8792 22.0208 16.4573 21.6691C17.0199 21.6691 17.4419 21.3175 17.6529 20.7548L17.7935 20.3329L17.9342 20.7548C18.0748 21.2472 18.5672 21.5988 19.1298 21.6691C18.6375 22.0208 18.4968 22.5131 18.6375 23.0757ZM24.3342 33.8362C24.1935 33.2735 23.6309 32.9219 23.1386 32.9219H20.1144L18.9891 29.6867C18.8485 29.1241 18.2858 28.7724 17.7935 28.7724C17.2309 28.7724 16.7386 29.1241 16.5979 29.6867L15.4726 32.9219H12.4485C11.8858 32.9219 11.3935 33.2735 11.2529 33.8362C11.1122 34.3988 11.2529 34.9614 11.7452 35.3131L14.2067 37.0713L13.2221 40.0955C13.0814 40.6581 13.2221 41.2208 13.7144 41.5724C14.1364 41.9241 14.7694 41.9241 15.2617 41.5724L17.9342 39.6735L20.6067 41.5724C20.8177 41.7131 21.099 41.7834 21.3803 41.7834C21.6617 41.7834 21.943 41.7131 22.154 41.5021C22.5759 41.1504 22.7869 40.5878 22.6463 40.0252L21.6617 37.001L24.1232 35.2428C24.3342 34.9614 24.4748 34.3285 24.3342 33.8362ZM18.6375 36.9307L18.7078 37.1417L18.4968 37.001C18.0748 36.6494 17.4419 36.6494 17.0199 37.001L16.8089 37.1417L16.8792 36.9307C17.0199 36.4384 16.8792 35.8757 16.4573 35.5241C17.0199 35.5241 17.4419 35.1724 17.6529 34.6098L17.7935 34.1878L17.9342 34.6098C18.0748 35.1021 18.5672 35.4537 19.1298 35.5241C18.6375 35.8757 18.4968 36.4384 18.6375 36.9307ZM24.3342 47.6911C24.1935 47.1285 23.6309 46.7768 23.1386 46.7768H20.1144L18.9891 43.5417C18.8485 42.979 18.2858 42.6274 17.7935 42.6274C17.2309 42.6274 16.7386 42.979 16.5979 43.5417L15.4726 46.7768H12.4485C11.8858 46.7768 11.3935 47.1285 11.2529 47.6911C11.1122 48.2537 11.2529 48.8164 11.7452 49.168L14.2067 50.9263L13.2221 53.9504C13.0814 54.5131 13.2221 55.0757 13.7144 55.4274C13.9254 55.568 14.2067 55.7087 14.488 55.7087C14.7694 55.7087 14.9803 55.6384 15.2617 55.4977L17.9342 53.5988L20.3957 55.357C20.8177 55.7087 21.4507 55.7087 21.943 55.357C22.365 55.0054 22.5759 54.4428 22.4353 53.8801L21.4507 50.8559L23.9122 49.0977C24.3342 48.8164 24.4748 48.2537 24.3342 47.6911ZM18.6375 50.7856L18.7078 50.9966L18.4968 50.8559C18.0748 50.5043 17.4419 50.5043 17.0199 50.8559L16.8089 50.9966L16.8792 50.7856C17.0199 50.2933 16.8792 49.7307 16.4573 49.379C17.0199 49.379 17.4419 49.0274 17.6529 48.4647L17.7935 48.0428L17.9342 48.4647C18.0748 48.957 18.5672 49.3087 19.1298 49.379C18.6375 49.7307 18.4968 50.2933 18.6375 50.7856Z" fill="black"/>
<path d="M62.5935 48.0429C63.1562 47.4099 63.5078 46.4956 63.5078 45.5814C63.5078 43.5418 61.8199 41.8539 59.71 41.8539L53.4507 41.9242C52.7474 41.9242 52.4661 41.7132 52.3957 41.2912L52.3254 36.0868C52.3254 34.4693 51.4815 31.4451 48.0353 31.0934C46.2771 30.9528 45.1518 31.2341 44.5188 32.0077C44.0968 32.5 44.0265 33.0627 44.0968 33.4846C44.0968 33.977 44.1672 36.5792 44.0968 37.9154C44.0265 38.689 43.8155 39.0407 43.8155 39.111C43.1826 39.4627 40.2287 41.2912 39.1034 44.8781C38.8221 45.722 38.4705 46.144 38.3298 46.2846H37.5562V45.722C37.5562 45.0187 36.9935 44.4561 36.2902 44.4561H28.6946C27.9913 44.4561 27.4287 45.0187 27.4287 45.722V62.3901C27.4287 63.0934 27.9913 63.6561 28.6946 63.6561H36.2199C36.9232 63.6561 37.4859 63.0934 37.4859 62.3901V48.8165H38.6815C38.8221 48.8165 38.9628 48.8165 39.1034 48.7462C39.3144 48.6759 40.8617 48.1132 41.6353 45.5814C42.4793 42.6978 45.1518 41.3616 45.1518 41.2912C45.2221 41.2912 45.2221 41.2209 45.2924 41.2209C45.5034 41.0803 46.6287 40.2363 46.7694 37.9857C46.8397 36.6495 46.8397 34.3989 46.7694 33.555H47.965C49.8639 33.6956 49.9342 35.5242 49.9342 35.9462L50.0045 41.1506C50.0045 41.2912 50.0045 42.4165 50.9188 43.3308C51.3408 43.8231 52.1848 44.3154 53.6617 44.3154L59.921 44.2451C60.554 44.2451 61.1166 44.8077 61.1166 45.4407C61.1166 46.0737 60.554 46.6363 59.921 46.6363H57.2485C56.5452 46.6363 55.9826 47.1989 55.9826 47.9022C55.9826 48.6055 56.5452 49.1682 57.2485 49.1682H59.7804C60.4133 49.1682 60.976 49.7308 60.976 50.3638C60.976 50.9967 60.4133 51.5594 59.7804 51.5594H56.4045C55.7012 51.5594 55.1386 52.122 55.1386 52.8253C55.1386 53.5286 55.7012 54.0912 56.4045 54.0912H59.1474C59.7804 54.0912 60.343 54.6539 60.343 55.2868C60.343 55.9198 59.7804 56.4824 59.1474 56.4824H55.6309C54.9276 56.4824 54.365 57.0451 54.365 57.7484C54.365 58.4517 54.9276 59.0143 55.6309 59.0143H58.5144C59.1474 59.0143 59.71 59.577 59.71 60.2099C59.71 60.8429 59.1474 61.4055 58.5144 61.4055H44.1672C44.0968 61.4055 42.6902 61.2649 41.9166 59.9989C41.354 59.0143 40.2287 58.8033 39.4551 59.0143C38.7518 59.2253 38.4001 59.9286 38.6111 60.5616C38.7518 61.1242 39.2441 61.4759 39.8067 61.4759C41.2837 63.7967 43.8155 63.9374 44.0265 63.9374H58.5144C60.554 63.9374 62.2419 62.2495 62.2419 60.2099C62.2419 59.4363 62.0309 58.6627 61.6089 58.1C62.3826 57.3967 62.8749 56.4121 62.8749 55.2868C62.8749 54.5132 62.6639 53.7396 62.2419 53.177C63.0155 52.4737 63.5078 51.489 63.5078 50.3638C63.5078 49.5901 63.1562 48.7462 62.5935 48.0429ZM34.954 61.0539H30.0309V46.9879H34.954V61.0539Z" fill="black"/>
<path d="M31.5782 60.4908C31.7892 60.7721 32.1408 60.8424 32.4925 60.8424C32.6332 60.8424 32.8441 60.7721 32.9848 60.7721C33.1255 60.7018 33.2661 60.6314 33.4068 60.4908C33.5474 60.3501 33.6178 60.2095 33.6881 60.0688C33.7584 59.9281 33.7584 59.7171 33.7584 59.5765C33.7584 59.2248 33.6178 58.8732 33.4068 58.6622C32.9145 58.1699 32.0705 58.1699 31.5782 58.6622C31.2969 58.9435 31.2266 59.2248 31.2266 59.5765C31.2266 59.7875 31.2969 59.9281 31.2969 60.0688C31.3672 60.2095 31.4376 60.3501 31.5782 60.4908Z" fill="black"/>
</svg>
