<svg width="58" height="61" viewBox="0 0 58 61" fill="none" xmlns="http://www.w3.org/2000/svg">
<path d="M57.25 27.0509V41.6497C57.25 41.9284 57.1403 42.1957 56.945 42.3928C56.7497 42.5899 56.4849 42.7007 56.2087 42.7007C55.9325 42.7007 55.6677 42.5899 55.4724 42.3928C55.2771 42.1957 55.1674 41.9284 55.1674 41.6497V27.0509C55.1665 26.3271 54.8812 25.6332 54.3741 25.1214C53.867 24.6096 53.1795 24.3216 52.4624 24.3207H24.2309C23.5138 24.3216 22.8263 24.6096 22.3192 25.1214C21.8121 25.6332 21.5268 26.3271 21.5259 27.0509V27.9866H26.6931C26.9693 27.9866 27.2341 28.0973 27.4294 28.2944C27.6247 28.4915 27.7344 28.7588 27.7344 29.0376C27.7344 29.3163 27.6247 29.5837 27.4294 29.7808C27.2341 29.9779 26.9693 30.0886 26.6931 30.0886H21.5259V47.605H26.6931C26.9693 47.605 27.2341 47.7157 27.4294 47.9128C27.6247 48.1099 27.7344 48.3772 27.7344 48.656C27.7344 48.9347 27.6247 49.202 27.4294 49.3991C27.2341 49.5963 26.9693 49.707 26.6931 49.707H21.5259V55.5428C21.5267 56.2666 21.8119 56.9606 22.319 57.4725C22.8261 57.9843 23.5137 58.2722 24.2309 58.273H52.4624C53.1796 58.2722 53.8672 57.9843 54.3743 57.4725C54.8814 56.9606 55.1666 56.2666 55.1674 55.5428V50.9586C55.1674 50.6798 55.2771 50.4125 55.4724 50.2154C55.6677 50.0183 55.9325 49.9076 56.2087 49.9076C56.4849 49.9076 56.7497 50.0183 56.945 50.2154C57.1403 50.4125 57.25 50.6798 57.25 50.9586V55.5428C57.2484 56.8239 56.7435 58.052 55.846 58.9579C54.9485 59.8638 53.7317 60.3734 52.4624 60.375H24.2309C22.9616 60.3734 21.7448 59.8638 20.8473 58.9579C19.9498 58.052 19.4449 56.8239 19.4433 55.5428V54.6119H11.1379C10.8618 54.6119 10.5969 54.5011 10.4016 54.304C10.2064 54.1069 10.0967 53.8396 10.0967 53.5609C10.0967 53.2821 10.2064 53.0148 10.4016 52.8177C10.5969 52.6206 10.8618 52.5099 11.1379 52.5099H19.4433V44.8027H11.1379C10.8618 44.8027 10.5969 44.692 10.4016 44.4949C10.2064 44.2977 10.0967 44.0304 10.0967 43.7517C10.0967 43.4729 10.2064 43.2056 10.4016 43.0085C10.5969 42.8114 10.8618 42.7007 11.1379 42.7007H19.4433V39.8978H6.611C6.33483 39.8978 6.06997 39.7871 5.87469 39.59C5.67941 39.3928 5.5697 39.1255 5.5697 38.8468C5.5697 38.568 5.67941 38.3007 5.87469 38.1036C6.06997 37.9065 6.33483 37.7958 6.611 37.7958H19.4433V34.9929H11.1379C10.8618 34.9929 10.5969 34.8822 10.4016 34.6851C10.2064 34.4879 10.0967 34.2206 10.0967 33.9419C10.0967 33.6631 10.2064 33.3958 10.4016 33.1987C10.5969 33.0016 10.8618 32.8909 11.1379 32.8909H19.4433V30.0886H6.611C6.33483 30.0886 6.06997 29.9779 5.87469 29.7808C5.67941 29.5837 5.5697 29.3163 5.5697 29.0376C5.5697 28.7588 5.67941 28.4915 5.87469 28.2944C6.06997 28.0973 6.33483 27.9866 6.611 27.9866H19.4433V27.0509C19.4449 25.7698 19.9498 24.5416 20.8473 23.6357C21.7448 22.7299 22.9616 22.2202 24.2309 22.2187H25.6518V13.3133C25.6508 11.9595 25.8625 10.6142 26.279 9.3273C26.3196 9.19385 26.3861 9.0699 26.4748 8.9627C26.5634 8.8555 26.6723 8.76719 26.7951 8.70293C26.9179 8.63868 27.0521 8.59976 27.19 8.58846C27.3279 8.57715 27.4666 8.59369 27.5981 8.63709C27.7295 8.6805 27.8511 8.74991 27.9557 8.84127C28.0603 8.93263 28.1458 9.04411 28.2073 9.1692C28.2687 9.29428 28.3048 9.43047 28.3135 9.56981C28.3223 9.70915 28.3034 9.84884 28.258 9.98073C27.91 11.0567 27.7333 12.1815 27.7344 13.3133V22.2187H30.0467V13.3115C30.0467 11.0895 30.9212 8.95855 32.4778 7.38736C34.0345 5.81618 36.1458 4.93349 38.3472 4.93349C40.5487 4.93349 42.66 5.81618 44.2167 7.38736C45.7733 8.95855 46.6478 11.0895 46.6478 13.3115V18.9275C46.6478 19.2062 46.5381 19.4736 46.3429 19.6707C46.1476 19.8678 45.8827 19.9785 45.6066 19.9785C45.3304 19.9785 45.0655 19.8678 44.8702 19.6707C44.675 19.4736 44.5653 19.2062 44.5653 18.9275V13.3115C44.5653 11.647 43.9101 10.0507 42.744 8.87371C41.5779 7.69673 39.9964 7.03551 38.3472 7.03551C36.6981 7.03551 35.1166 7.69673 33.9505 8.87371C32.7843 10.0507 32.1292 11.647 32.1292 13.3115V22.2187H48.9589V13.3133C48.9556 10.4735 47.8365 7.75103 45.847 5.743C43.8575 3.73498 41.1602 2.6054 38.3467 2.60206C36.7451 2.59752 35.1637 2.96256 33.7233 3.66928C33.4748 3.7909 33.1885 3.80787 32.9276 3.71647C32.6666 3.62507 32.4523 3.43279 32.3318 3.18192C32.2114 2.93105 32.1945 2.64214 32.2851 2.37876C32.3756 2.11537 32.5662 1.89908 32.8147 1.77747C34.5388 0.931663 36.4315 0.494731 38.3484 0.500048C41.7142 0.503863 44.941 1.85505 47.3209 4.25718C49.7008 6.65931 51.0395 9.9162 51.0433 13.3133V22.2187H52.4642C53.7332 22.2207 54.9495 22.7305 55.8466 23.6364C56.7438 24.5422 57.2484 25.7701 57.25 27.0509ZM56.2087 44.7522C55.9325 44.7522 55.6677 44.863 55.4724 45.0601C55.2771 45.2572 55.1674 45.5245 55.1674 45.8032V46.354C55.1674 46.6327 55.2771 46.9 55.4724 47.0971C55.6677 47.2942 55.9325 47.405 56.2087 47.405C56.4849 47.405 56.7497 47.2942 56.945 47.0971C57.1403 46.9 57.25 46.6327 57.25 46.354V45.8032C57.2498 45.5245 57.1401 45.2573 56.9448 45.0602C56.7496 44.8632 56.4848 44.7524 56.2087 44.7522ZM29.5183 6.68597C29.6681 6.68629 29.8161 6.65386 29.9523 6.59093C30.0885 6.52801 30.2096 6.43606 30.3073 6.32142C30.4465 6.15927 30.5893 6.00072 30.7375 5.84757C30.9302 5.64783 31.0363 5.37901 31.0327 5.10025C31.029 4.8215 30.9157 4.55563 30.7178 4.36115C30.5199 4.16666 30.2536 4.05949 29.9774 4.06321C29.7012 4.06692 29.4378 4.18123 29.2452 4.38097C29.0678 4.56474 28.8963 4.75412 28.7305 4.94911C28.6002 5.10141 28.516 5.28828 28.4879 5.48749C28.4598 5.6867 28.4889 5.88986 28.5719 6.07281C28.6549 6.25577 28.7882 6.41082 28.956 6.51952C29.1237 6.62822 29.3189 6.68599 29.5183 6.68597ZM37.6659 34.1593C38.1521 34.0581 38.6544 34.0673 39.1365 34.1863C39.6187 34.3053 40.0685 34.5311 40.4535 34.8473C40.8384 35.1635 41.1489 35.5623 41.3622 36.0146C41.5756 36.4669 41.6866 36.9615 41.6871 37.4625C41.6871 37.7412 41.7968 38.0085 41.9921 38.2056C42.1874 38.4027 42.4522 38.5135 42.7284 38.5135C43.0046 38.5135 43.2694 38.4027 43.4647 38.2056C43.66 38.0085 43.7697 37.7412 43.7697 37.4625C43.7701 36.0983 43.2658 34.7831 42.3557 33.7745C41.4456 32.7659 40.1953 32.1366 38.8495 32.0098C37.5038 31.8831 36.1596 32.268 35.0804 33.0891C34.0011 33.9103 33.2644 35.1086 33.0146 36.4493C32.841 37.4041 32.9202 38.3882 33.244 39.3023C33.5679 40.2163 34.1251 41.0279 34.8592 41.6551V46.5882C34.8592 47.5213 35.2264 48.4161 35.8801 49.0759C36.5338 49.7357 37.4204 50.1064 38.3449 50.1064C39.2693 50.1064 40.1559 49.7357 40.8096 49.0759C41.4633 48.4161 41.8305 47.5213 41.8305 46.5882V41.135C41.8305 40.8562 41.7208 40.5889 41.5255 40.3918C41.3303 40.1947 41.0654 40.084 40.7892 40.084C40.5131 40.084 40.2482 40.1947 40.0529 40.3918C39.8576 40.5889 39.7479 40.8562 39.7479 41.135V46.5894C39.7479 46.965 39.6001 47.3252 39.337 47.5908C39.0739 47.8563 38.717 48.0056 38.3449 48.0056C37.9728 48.0056 37.6159 47.8563 37.3527 47.5908C37.0896 47.3252 36.9418 46.965 36.9418 46.5894V41.135C36.9418 40.9627 36.8998 40.7931 36.8196 40.641C36.7394 40.489 36.6234 40.3591 36.4818 40.2629C35.9353 39.893 35.5092 39.3684 35.2569 38.7549C35.0045 38.1414 34.9373 37.4665 35.0636 36.8146C35.1899 36.1627 35.504 35.563 35.9666 35.0906C36.4293 34.6182 37.0198 34.2943 37.6642 34.1593H37.6659ZM1.79129 34.9929H6.611C6.88716 34.9929 7.15202 34.8822 7.3473 34.6851C7.54258 34.4879 7.65229 34.2206 7.65229 33.9419C7.65229 33.6631 7.54258 33.3958 7.3473 33.1987C7.15202 33.0016 6.88716 32.8909 6.611 32.8909H1.79129C1.51513 32.8909 1.25027 33.0016 1.05499 33.1987C0.859707 33.3958 0.75 33.6631 0.75 33.9419C0.75 34.2206 0.859707 34.4879 1.05499 34.6851C1.25027 34.8822 1.51513 34.9929 1.79129 34.9929ZM1.79129 44.8027H6.611C6.88716 44.8027 7.15202 44.692 7.3473 44.4949C7.54258 44.2977 7.65229 44.0304 7.65229 43.7517C7.65229 43.4729 7.54258 43.2056 7.3473 43.0085C7.15202 42.8114 6.88716 42.7007 6.611 42.7007H1.79129C1.51513 42.7007 1.25027 42.8114 1.05499 43.0085C0.859707 43.2056 0.75 43.4729 0.75 43.7517C0.75 44.0304 0.859707 44.2977 1.05499 44.4949C1.25027 44.692 1.51513 44.8027 1.79129 44.8027ZM6.611 52.5099H1.79129C1.51513 52.5099 1.25027 52.6206 1.05499 52.8177C0.859707 53.0148 0.75 53.2821 0.75 53.5609C0.75 53.8396 0.859707 54.1069 1.05499 54.304C1.25027 54.5011 1.51513 54.6119 1.79129 54.6119H6.611C6.88716 54.6119 7.15202 54.5011 7.3473 54.304C7.54258 54.1069 7.65229 53.8396 7.65229 53.5609C7.65229 53.2821 7.54258 53.0148 7.3473 52.8177C7.15202 52.6206 6.88716 52.5099 6.611 52.5099ZM26.6931 37.7958H24.1654C23.8893 37.7958 23.6244 37.9065 23.4291 38.1036C23.2338 38.3007 23.1241 38.568 23.1241 38.8468C23.1241 39.1255 23.2338 39.3928 23.4291 39.59C23.6244 39.7871 23.8893 39.8978 24.1654 39.8978H26.6931C26.9693 39.8978 27.2341 39.7871 27.4294 39.59C27.6247 39.3928 27.7344 39.1255 27.7344 38.8468C27.7344 38.568 27.6247 38.3007 27.4294 38.1036C27.2341 37.9065 26.9693 37.7958 26.6931 37.7958ZM5.5697 48.656C5.56962 48.794 5.5965 48.9307 5.64881 49.0583C5.70111 49.1858 5.77781 49.3017 5.87452 49.3993C5.97122 49.4969 6.08605 49.5744 6.21242 49.6271C6.33879 49.6799 6.47423 49.7071 6.611 49.707H16.207C16.4831 49.707 16.748 49.5963 16.9433 49.3991C17.1386 49.202 17.2483 48.9347 17.2483 48.656C17.2483 48.3772 17.1386 48.1099 16.9433 47.9128C16.748 47.7157 16.4831 47.605 16.207 47.605H6.611C6.33483 47.605 6.06997 47.7157 5.87469 47.9128C5.67941 48.1099 5.5697 48.3772 5.5697 48.656Z" fill="#020202"/>
</svg>
